<?xml version="1.0" standalone="no"?><!DOCTYPE svg PUBLIC "-//W3C//DTD SVG 1.1//EN" "http://www.w3.org/Graphics/SVG/1.1/DTD/svg11.dtd"><svg t="1551944606163" class="icon" style="" viewBox="0 0 1024 1024" version="1.1" xmlns="http://www.w3.org/2000/svg" p-id="2823" xmlns:xlink="http://www.w3.org/1999/xlink" width="16" height="16"><defs><style type="text/css"></style></defs><path d="M797.788029 41.484773a128.510329 128.510329 0 0 0-40.447474-31.436392c-13.82382-5.734325-30.207607-8.857485-49.612155-9.932671-19.455747-1.023987-41.471461 4.710339-66.559135 18.841356-16.383787 8.345492-38.860295 20.940528-67.019929 36.607524l-87.499662 47.103387c-35.685936 19.865342-71.679068 39.21869-107.979397 58.008846h479.532966L797.788029 41.433573z m-29.695614 668.253712c-26.111661 0-46.079401-5.785525-59.852022-15.718195a107.518602 107.518602 0 0 1-30.207607-35.532338 142.846143 142.846143 0 0 1-12.287841-52.837713c0-28.722827 9.727874-53.8617 30.207608-73.727042 20.479734-19.865342 43.519434-29.798013 72.703054-29.798013H1023.986688V344.73843c0-28.774026-9.727874-53.8617-30.207607-74.239034-20.479734-20.428534-43.519434-30.873199-72.651856-30.873199H102.859463c-28.159634 0-52.735314 9.932671-72.703055 30.873199C10.239867 291.337525 0 314.889218 0 344.73843v574.66133c0 14.64301 3.07196 28.262033 8.191894 40.805869 5.631927 12.543837 12.799834 24.063687 23.551693 32.921172 9.727874 9.932671 20.991727 17.254176 33.791561 22.527707 12.799834 5.734325 26.060461 8.345492 40.396275 8.345492h818.267762c14.335814 0 27.647641-2.611166 39.935481-8.396691 12.28784-5.734325 22.527707-12.543837 31.743588-22.476508 8.703887-9.932671 16.383787-20.889328 20.940527-32.921172a119.806443 119.806443 0 0 0 7.167907-40.805869v-209.149281c0-0.511993-255.894273-0.511993-255.894273-0.511994z m-26.623654-141.719757c-10.75186 10.956658-15.3598 23.0397-15.3598 38.143504 0 14.64301 4.60794 28.262033 15.3598 38.706697 10.75186 11.007857 22.527707 16.742182 37.375514 16.742182a49.151361 49.151361 0 0 0 37.375514-16.742182c10.75186-10.956658 15.3598-24.063687 15.3598-38.706697 0-14.64301-4.60794-28.210833-15.3598-38.143504a48.895364 48.895364 0 0 0-37.375514-15.718196c-14.847807 0-27.135647 4.710339-37.375514 15.718196z" p-id="2824" fill="#00a4ca"></path></svg>