<?xml version="1.0" standalone="no"?><!DOCTYPE svg PUBLIC "-//W3C//DTD SVG 1.1//EN" "http://www.w3.org/Graphics/SVG/1.1/DTD/svg11.dtd"><svg t="1567180078631" class="icon" viewBox="0 0 1024 1024" version="1.1" xmlns="http://www.w3.org/2000/svg" p-id="4959" xmlns:xlink="http://www.w3.org/1999/xlink" width="64" height="64"><defs><style type="text/css"></style></defs><path d="M512 0c-283.105882 0-512 228.894118-512 512s228.894118 512 512 512 512-228.894118 512-512S795.105882 0 512 0z m222.870588 644.517647c24.094118 24.094118 24.094118 66.258824 0 90.352941-24.094118 24.094118-66.258824 24.094118-90.352941 0l-132.517647-132.517647-132.517647 138.541177c-24.094118 24.094118-66.258824 24.094118-90.352941 0-12.047059-18.070588-18.070588-30.117647-18.070588-48.188236s6.023529-36.141176 18.070588-48.188235l132.517647-132.517647-132.517647-126.494118c-12.047059-18.070588-18.070588-30.117647-18.070588-48.188235 0-18.070588 6.023529-36.141176 18.070588-48.188235 24.094118-24.094118 66.258824-24.094118 90.352941 0l132.517647 132.517647 132.517647-132.517647c24.094118-24.094118 66.258824-24.094118 90.352941 0 24.094118 24.094118 24.094118 66.258824 0 90.352941l-132.517647 132.517647 132.517647 132.517647z" p-id="4960" fill="#d81e06"></path></svg>