<?xml version="1.0" standalone="no"?><!DOCTYPE svg PUBLIC "-//W3C//DTD SVG 1.1//EN" "http://www.w3.org/Graphics/SVG/1.1/DTD/svg11.dtd"><svg t="1551944702466" class="icon" style="" viewBox="0 0 1029 1024" version="1.1" xmlns="http://www.w3.org/2000/svg" p-id="6196" xmlns:xlink="http://www.w3.org/1999/xlink" width="16.078125" height="16"><defs><style type="text/css"></style></defs><path d="M514.56 0c-27.306667 0-47.786667 13.653333-61.44 40.96L343.893333 218.453333c-13.653333 20.48-34.133333 40.96-61.44 47.786667l-218.453333 68.266667c-34.133333 6.826667-47.786667 27.306667-61.44 40.96-6.826667 20.48 0 47.786667 20.48 81.92 27.306667 34.133333 47.786667 68.266667 75.093333 95.573333 13.653333 20.48 34.133333 47.786667 54.613334 68.266667 13.653333 20.48 20.48 40.96 20.48 68.266666l-6.826667 238.933334c0 34.133333 0 61.44 13.653333 75.093333 13.653333 13.653333 20.48 20.48 34.133334 20.48s34.133333-6.826667 54.613333-13.653333l184.32-75.093334c20.48-6.826667 54.613333-13.653333 75.093333 0l218.453334 81.92c61.44 20.48 95.573333-6.826667 102.4-81.92l-13.653334-211.626666c0-27.306667 6.826667-47.786667 20.48-68.266667l143.36-191.146667c27.306667-27.306667 34.133333-54.613333 27.306667-75.093333-6.826667-20.48-27.306667-40.96-61.44-47.786667l-197.973333-54.613333c-27.306667-6.826667-47.786667-20.48-61.44-40.96-34.133333-54.613333-88.746667-150.186667-129.706667-204.8-20.48-27.306667-40.96-40.96-61.44-40.96z m0 0" p-id="6197" fill="#00a4ca"></path></svg>