<?xml version="1.0" standalone="no"?><!DOCTYPE svg PUBLIC "-//W3C//DTD SVG 1.1//EN" "http://www.w3.org/Graphics/SVG/1.1/DTD/svg11.dtd"><svg t="1551944660080" class="icon" style="" viewBox="0 0 1024 1024" version="1.1" xmlns="http://www.w3.org/2000/svg" p-id="3964" xmlns:xlink="http://www.w3.org/1999/xlink" width="16" height="16"><defs><style type="text/css"></style></defs><path d="M128 0h748.458667a85.333333 85.333333 0 0 1 85.333333 85.333333v833.258667a85.333333 85.333333 0 0 1-85.333333 85.333333H128a85.333333 85.333333 0 0 1-85.333333-85.333333V85.333333a85.333333 85.333333 0 0 1 85.333333-85.333333z m713.685333 932.053333c15.274667 0 27.690667-11.392 27.690667-25.450666v-153.493334c-15.616 19.733333-43.306667 27.754667-58.538667 28.053334l-608.853333 6.485333c-13.290667-0.853333-47.509333-0.213333-63.274667 13.205333-3.52 3.008-7.893333 8.64-8.384 19.562667v81.365333c0 17.706667 12.416 30.272 27.648 30.272h683.712z m-458.88-694.656a21.333333 21.333333 0 0 0-31.786666 18.602667v286.208a21.333333 21.333333 0 0 0 31.786666 18.602667l254.506667-143.125334a21.333333 21.333333 0 0 0 0-37.184l-254.506667-143.104z" p-id="3965" fill="#00a4ca"></path></svg>