<?xml version="1.0" standalone="no"?><!DOCTYPE svg PUBLIC "-//W3C//DTD SVG 1.1//EN" "http://www.w3.org/Graphics/SVG/1.1/DTD/svg11.dtd"><svg t="1516289115686" class="icon" style="" viewBox="0 0 1024 1024" version="1.1" xmlns="http://www.w3.org/2000/svg" p-id="2205" xmlns:xlink="http://www.w3.org/1999/xlink" width="16" height="16"><defs><style type="text/css"></style></defs><path d="M782.954667 240.512C713.365333 170.901333 617.834667 127.701333 511.765333 127.701333 299.605333 127.701333 128.234667 299.541333 128.234667 511.701333 128.234667 723.861333 299.605333 895.701333 511.765333 895.701333 690.794667 895.701333 840.085333 773.312 882.794667 607.701333L782.954667 607.701333C743.594667 719.552 637.034667 799.701333 511.765333 799.701333 352.874667 799.701333 223.765333 670.592 223.765333 511.701333 223.765333 352.832 352.874667 223.701333 511.765333 223.701333 591.445333 223.701333 662.485333 256.832 714.325333 309.141333L559.765333 463.701333 895.765333 463.701333 895.765333 127.701333 782.954667 240.512Z" p-id="2206" fill="#ffffff"></path></svg>