<?xml version="1.0" standalone="no"?><!DOCTYPE svg PUBLIC "-//W3C//DTD SVG 1.1//EN" "http://www.w3.org/Graphics/SVG/1.1/DTD/svg11.dtd"><svg t="1551944749375" class="icon" style="" viewBox="0 0 1024 1024" version="1.1" xmlns="http://www.w3.org/2000/svg" p-id="8869" xmlns:xlink="http://www.w3.org/1999/xlink" width="16" height="16"><defs><style type="text/css"></style></defs><path d="M891.968 1012.608H164.288c-64.96 0-118.784-48.32-118.784-105.984V151.552c0-57.664 53.824-106.048 118.784-106.048h729.536c64.96 0 118.784 48.384 118.784 106.048v755.072c-1.856 57.6-55.68 105.984-120.64 105.984zM240.448 632.064l164.608-165.76L569.6 632.128a17.792 17.792 0 0 0 25.344 0l179.648-180.864 49.024 49.344a25.6 25.6 0 0 0 43.776-18.048V298.688a25.6 25.6 0 0 0-25.6-25.6H659.2a25.6 25.6 0 0 0-18.176 43.648l57.6 57.984-116.352 117.12-164.544-165.696-1.024-0.64a17.664 17.664 0 0 0-11.648-4.608 17.792 17.792 0 0 0-12.672 5.248L164.48 555.584a18.112 18.112 0 0 0 0 25.472l50.56 51.008c7.04 7.04 18.368 7.04 25.344 0z m146.368 152.96a56.896 56.896 0 0 0 0 113.792h284.48a56.896 56.896 0 1 0 0-113.728H386.816z" p-id="8870" fill="#00a4ca"></path></svg>